<?xml version="1.0" encoding="UTF-8"?>
<svg xmlns="http://www.w3.org/2000/svg" xmlns:xlink="http://www.w3.org/1999/xlink" width="148pt" height="37pt" viewBox="0 0 148 37" version="1.1">
<g id="surface1">
<path style=" stroke:none;fill-rule:nonzero;fill:rgb(0%,0%,0%);fill-opacity:1;" d="M 13.796875 2.632812 C 7.996094 4.199219 3.429688 9.179688 2.15625 15.226562 C 0.0703125 25.367188 7.640625 35.222656 17.507812 35.222656 C 27.378906 35.222656 34.949219 25.367188 32.863281 15.226562 C 30.988281 6.261719 22.074219 0.355469 13.796875 2.632812 Z M 21.1875 10.53125 C 22.25 10.746094 22.285156 10.851562 22.285156 12.453125 L 22.285156 14.160156 L 20.515625 13.589844 C 19.207031 13.164062 18.429688 13.128906 17.4375 13.375 C 16.273438 13.660156 16.09375 13.839844 16.09375 14.765625 C 16.09375 15.726562 16.34375 15.972656 18.5 17.113281 C 22.074219 19 22.816406 19.851562 22.816406 22.199219 C 22.816406 24.371094 21.964844 25.6875 19.914062 26.539062 C 18.570312 27.144531 15.210938 27.179688 13.371094 26.648438 C 12.027344 26.292969 12.027344 26.292969 12.027344 24.40625 L 12.027344 22.519531 L 13.6875 23.339844 C 15.671875 24.371094 17.332031 24.441406 18.394531 23.550781 C 19.738281 22.449219 19.066406 21.488281 16.023438 20.03125 C 13.050781 18.605469 12.027344 17.398438 12.027344 15.191406 C 12.027344 13.199219 12.910156 11.777344 14.609375 10.992188 C 16.128906 10.316406 19.066406 10.105469 21.1875 10.53125 Z M 21.1875 10.53125 "/>
<path style=" stroke:none;fill-rule:nonzero;fill:rgb(0%,0%,0%);fill-opacity:1;" d="M 37.847656 18.320312 L 37.847656 26.683594 L 41.03125 26.683594 L 41.03125 23.019531 C 41.03125 19.140625 41.386719 18.074219 42.765625 17.683594 C 43.15625 17.609375 43.792969 17.753906 44.179688 18.039062 C 44.851562 18.5 44.921875 18.890625 44.921875 22.625 L 44.921875 26.683594 L 48.460938 26.683594 L 48.460938 22.449219 C 48.460938 20.136719 48.285156 17.753906 48.070312 17.113281 C 47.328125 14.941406 44.535156 14.300781 42.304688 15.832031 L 41.03125 16.6875 L 41.03125 9.960938 L 37.847656 9.960938 Z M 37.847656 18.320312 "/>
<path style=" stroke:none;fill-rule:nonzero;fill:rgb(0%,0%,0%);fill-opacity:1;" d="M 129.109375 13.199219 L 129.109375 16.402344 L 128.191406 15.6875 C 126.210938 14.125 122.886719 15.191406 121.613281 17.789062 C 120.726562 19.566406 120.761719 23.304688 121.683594 24.796875 C 123.097656 27.144531 126.386719 27.714844 128.261719 25.9375 L 129.109375 25.152344 L 129.109375 25.898438 C 129.109375 26.613281 129.289062 26.683594 130.878906 26.683594 L 132.648438 26.683594 L 132.648438 9.960938 L 129.109375 9.960938 Z M 128.652344 18.714844 C 129.324219 19.78125 129.109375 22.910156 128.296875 23.730469 C 127.023438 25.011719 124.796875 24.050781 124.371094 22.058594 C 123.734375 18.714844 126.988281 16.1875 128.652344 18.714844 Z M 128.652344 18.714844 "/>
<path style=" stroke:none;fill-rule:nonzero;fill:rgb(0%,0%,0%);fill-opacity:1;" d="M 98.230469 10.816406 C 94.65625 12.132812 92.855469 15.191406 93.101562 19.710938 C 93.207031 21.949219 93.382812 22.589844 94.269531 23.871094 C 94.871094 24.691406 95.964844 25.6875 96.710938 26.113281 C 98.40625 26.96875 101.519531 27.25 103.570312 26.71875 C 105.058594 26.292969 105.058594 26.292969 105.058594 24.691406 C 105.058594 23.265625 104.988281 23.089844 104.457031 23.304688 C 103.253906 23.835938 99.964844 23.871094 99.078125 23.410156 C 96.816406 22.164062 95.964844 19.035156 97.203125 16.257812 C 98.195312 14.015625 99.503906 13.375 102.652344 13.589844 L 105.058594 13.769531 L 105.058594 12.273438 C 105.058594 10.851562 104.988281 10.746094 103.960938 10.53125 C 102.191406 10.175781 99.679688 10.316406 98.230469 10.816406 Z M 98.230469 10.816406 "/>
<path style=" stroke:none;fill-rule:nonzero;fill:rgb(0%,0%,0%);fill-opacity:1;" d="M 54.546875 15.191406 C 54.121094 15.261719 53.128906 15.9375 52.386719 16.648438 C 49.378906 19.53125 50.300781 24.976562 54.015625 26.539062 C 56.703125 27.679688 60.488281 26.683594 61.832031 24.476562 C 62.398438 23.550781 62.609375 22.664062 62.609375 21.027344 C 62.609375 17.183594 60.949219 15.332031 57.375 15.121094 C 56.277344 15.050781 55.003906 15.085938 54.546875 15.191406 Z M 58.613281 18.570312 C 59.53125 19.601562 59.460938 22.554688 58.4375 23.550781 C 57.585938 24.40625 55.710938 24.511719 54.933594 23.730469 C 54.191406 23.019531 53.945312 20.492188 54.472656 19.246094 C 55.183594 17.46875 57.304688 17.148438 58.613281 18.570312 Z M 58.613281 18.570312 "/>
<path style=" stroke:none;fill-rule:nonzero;fill:rgb(0%,0%,0%);fill-opacity:1;" d="M 67.703125 15.441406 C 64.875 16.6875 63.601562 20.742188 65.015625 23.980469 C 65.617188 25.296875 66.078125 25.792969 67.277344 26.328125 C 68.976562 27.109375 70.957031 27.214844 72.972656 26.648438 C 74.175781 26.328125 74.28125 26.183594 74.28125 25.082031 C 74.28125 23.90625 74.246094 23.871094 73.363281 24.191406 C 70.992188 25.117188 67.953125 24.15625 67.914062 22.484375 C 67.914062 22.164062 68.90625 22.058594 71.664062 22.058594 L 75.414062 22.058594 L 75.167969 20.171875 C 75.027344 19.175781 74.636719 17.824219 74.316406 17.253906 C 73.1875 15.226562 70.144531 14.375 67.703125 15.441406 Z M 71.382812 17.859375 C 71.558594 18.109375 71.84375 18.679688 71.949219 19.105469 C 72.195312 19.886719 72.125 19.921875 70.074219 19.921875 C 67.738281 19.921875 67.492188 19.636719 68.480469 18.214844 C 69.082031 17.363281 70.78125 17.148438 71.382812 17.859375 Z M 71.382812 17.859375 "/>
<path style=" stroke:none;fill-rule:nonzero;fill:rgb(0%,0%,0%);fill-opacity:1;" d="M 78.917969 15.511719 C 77.289062 16.1875 76.792969 16.96875 76.757812 18.714844 C 76.757812 20.457031 77.253906 20.953125 80.046875 22.199219 C 82.171875 23.160156 82.417969 23.480469 81.535156 24.191406 C 81.003906 24.65625 78.632812 24.546875 77.394531 24.015625 C 76.863281 23.800781 76.757812 23.980469 76.757812 25.1875 C 76.757812 26.648438 76.757812 26.648438 78.351562 26.894531 C 82.171875 27.464844 85.25 25.9375 85.25 23.480469 C 85.25 21.703125 84.648438 20.992188 82.171875 19.886719 C 80.507812 19.105469 79.941406 18.679688 80.011719 18.214844 C 80.15625 17.46875 82.703125 17.183594 83.832031 17.789062 C 84.503906 18.144531 84.542969 18.074219 84.542969 16.792969 C 84.542969 15.511719 84.433594 15.371094 83.445312 15.15625 C 81.710938 14.800781 80.226562 14.941406 78.917969 15.511719 Z M 78.917969 15.511719 "/>
<path style=" stroke:none;fill-rule:nonzero;fill:rgb(0%,0%,0%);fill-opacity:1;" d="M 110.152344 15.617188 C 108.0625 16.578125 107.179688 18.179688 107.179688 21.027344 C 107.179688 23.941406 107.992188 25.402344 110.257812 26.398438 C 112.238281 27.289062 115.28125 27.109375 116.695312 26.042969 C 119.171875 24.191406 119.914062 20.917969 118.535156 18 C 117.15625 15.191406 113.40625 14.125 110.152344 15.617188 Z M 115.101562 18.605469 C 115.917969 19.566406 115.738281 22.839844 114.855469 23.730469 C 114.078125 24.546875 112.238281 24.476562 111.390625 23.585938 C 110.539062 22.734375 110.363281 20.207031 111.035156 18.925781 C 111.882812 17.324219 113.863281 17.183594 115.101562 18.605469 Z M 115.101562 18.605469 "/>
<path style=" stroke:none;fill-rule:nonzero;fill:rgb(0%,0%,0%);fill-opacity:1;" d="M 137.953125 15.617188 C 136.398438 16.4375 135.511719 17.644531 135.089844 19.53125 C 133.921875 24.796875 137.882812 28.175781 143.367188 26.648438 C 144.570312 26.328125 144.675781 26.183594 144.675781 25.082031 C 144.675781 23.90625 144.640625 23.871094 143.753906 24.191406 C 142.09375 24.832031 140.113281 24.621094 139.191406 23.660156 C 138.695312 23.195312 138.308594 22.625 138.308594 22.414062 C 138.308594 22.199219 139.6875 22.058594 142.058594 22.058594 L 145.84375 22.058594 L 145.628906 20.03125 C 145.382812 17.71875 144.605469 16.472656 142.871094 15.582031 C 141.316406 14.765625 139.476562 14.765625 137.953125 15.617188 Z M 141.988281 18.214844 C 142.976562 19.636719 142.730469 19.921875 140.429688 19.921875 C 139.261719 19.921875 138.308594 19.851562 138.308594 19.746094 C 138.308594 19.601562 138.554688 19.070312 138.839844 18.5 C 139.546875 17.148438 141.171875 17.003906 141.988281 18.214844 Z M 141.988281 18.214844 "/>
</g>
</svg>
